PathFileType	4	(X/Y/Z)	C:\Users\Basilio\Documents\Thesis Gigler\squatting_fais\c3dfiles\040\SJ_pre2\markers_experimental.trc
DataRate	CameraRate	NumFrames	NumMarkers	Units	OrigDataRate	OrigDataStartFrame	OrigNumFrames
200.000000	200.000000	4	64	mm	200.000000	166	1328
Frame#	Time	FHD			LBHD			RBHD			C7			T10			CLAV			LSHO			LUUPA			LMUPA			LDUPA			LLEP			LMEP			LRAD			LUL			LRFIN			RSHO			RUPA1			RMUPA			RDUPA			RLEP			RMEP			RRAD			RUL			RUFIN			RASI			USACR			LSACR			RSACR			LTHI1			LTHI2			LTHI3			LTHI4			LLFC			LMFC			LTIB1			LTIB2			LTIB3			LTIB4			LLMAL			LMMAL			LHEE			LMT1			LMT2			LMT5			RTHI			RTHI2			RTHI3			RTHI4			RLFC			RMFC			RTIB1			RTIB2			RTIB3			RTIB4			RLMAL			RMMAL			RHEE			RMT1			RMT2			RMT5			LASI			*61			*62			*63			
		X1	Y1	Z1	X2	Y2	Z2	X3	Y3	Z3	X4	Y4	Z4	X5	Y5	Z5	X6	Y6	Z6	X7	Y7	Z7	X8	Y8	Z8	X9	Y9	Z9	X10	Y10	Z10	X11	Y11	Z11	X12	Y12	Z12	X13	Y13	Z13	X14	Y14	Z14	X15	Y15	Z15	X16	Y16	Z16	X17	Y17	Z17	X18	Y18	Z18	X19	Y19	Z19	X20	Y20	Z20	X21	Y21	Z21	X22	Y22	Z22	X23	Y23	Z23	X24	Y24	Z24	X25	Y25	Z25	X26	Y26	Z26	X27	Y27	Z27	X28	Y28	Z28	X29	Y29	Z29	X30	Y30	Z30	X31	Y31	Z31	X32	Y32	Z32	X33	Y33	Z33	X34	Y34	Z34	X35	Y35	Z35	X36	Y36	Z36	X37	Y37	Z37	X38	Y38	Z38	X39	Y39	Z39	X40	Y40	Z40	X41	Y41	Z41	X42	Y42	Z42	X43	Y43	Z43	X44	Y44	Z44	X45	Y45	Z45	X46	Y46	Z46	X47	Y47	Z47	X48	Y48	Z48	X49	Y49	Z49	X50	Y50	Z50	X51	Y51	Z51	X52	Y52	Z52	X53	Y53	Z53	X54	Y54	Z54	X55	Y55	Z55	X56	Y56	Z56	X57	Y57	Z57	X58	Y58	Z58	X59	Y59	Z59	X60	Y60	Z60	X61	Y61	Z61	X62	Y62	Z62	X63	Y63	Z63	X64	Y64	Z64	

167	0.8300000000000001	-36.77039337158204	1602.153442382813	-878.7146606445315	-170.9477691650391	1609.983276367188	-919.1421508789065	-233.5191802978516	1601.677978515625	-786.9234008789065	-295.6950988769532	1498.380493164063	-843.685729980469	-453.0124816894532	1211.532104492188	-853.599304199219	-212.984115600586	1380.870361328125	-829.579284667969	-223.0802154541016	1444.864135742188	-1006.545043945313	-335.0493164062501	1368.909790039063	-1163.959594726563	-340.4386291503907	1319.761352539063	-1162.785278320313	-377.7321166992188	1334.7724609375	-1208.060913085938	-425.4848632812501	1306.534790039063	-1249.464721679688	-485.824188232422	1326.667846679688	-1205.7138671875	-483.279266357422	1082.19091796875	-1065.948120117188	-451.4026794433595	1043.876220703125	-1121.120727539063	-431.1740722656251	1067.84521484375	-1022.63330078125	-257.5549621582032	1437.103393554688	-661.0708007812501	-413.3741455078126	1404.80908203125	-529.4238281250001	-414.1458129882814	1356.248413085938	-515.5253295898439	-462.8420715332032	1377.91845703125	-487.1734924316407	-506.5415954589845	1331.0390625	-450.5726013183595	-564.7370605468751	1338.967163085938	-514.0219726562501	-468.4762268066407	1111.023559570313	-634.5581054687501	-473.1433715820314	1070.969848632813	-571.8689575195314	-412.964569091797	1071.627075195313	-662.5640869140626	-365.2551879882813	990.985778808594	-721.4010620117189	-519.0655517578126	1079.248901367188	-846.892761230469	-531.6850585937501	1050.655029296875	-873.8623046875002	-540.2490844726564	1053.950927734375	-818.6309204101565	-416.2088012695314	755.6625976562501	-1049.4921875	-356.0053100585938	700.2294311523439	-1071.331176757813	-312.3839111328126	718.4945678710939	-1069.7431640625	-357.2768249511719	640.9027709960939	-1066.447509765625	-300.0682067871094	526.4879760742189	-1084.219116210938	-296.2948913574219	483.5821228027345	-963.2071533203127	-293.4885559082032	300.4374389648438	-1085.812255859375	-372.6505737304688	282.5828552246094	-1122.653198242188	-332.8701782226563	264.9526367187501	-1115.019409179688	-336.3919067382813	182.0494689941407	-1095.046875	-417.0010986328126	104.4509429931641	-1118.784912109375	-374.9243164062501	105.9593353271485	-1037.677734375	-471.5959777832032	43.9353141784668	-1073.381958007813	-248.1596069335938	58.07955551147462	-1087.857055664063	-258.8278503417969	58.50098037719728	-1133.588623046875	-311.7073364257813	33.61251068115235	-1174.815673828125	-400.9612731933595	760.5283203125001	-617.8594360351564	-353.4140319824219	713.8094482421876	-606.8878173828126	-321.1012573242188	722.3121948242189	-610.1575927734376	-362.4971008300782	630.2287597656251	-616.6588134765626	-326.0341796875001	507.5966186523439	-608.2258911132814	-305.4375000000001	492.9954833984376	-736.0638427734376	-307.2442016601563	316.1978759765626	-618.9874267578126	-399.262664794922	259.9299011230469	-605.5855712890626	-356.0634460449219	245.193344116211	-610.0096435546876	-346.7195739746094	195.2730255126954	-639.3720703125001	-426.9429626464845	99.3859558105469	-623.2464599609376	-392.5942687988282	105.9758377075196	-707.2340087890626	-481.1583251953126	47.20602798461915	-687.9835815429689	-261.2057189941407	55.96407318115236	-645.9058837890626	-273.3576965332032	59.63733673095705	-607.1335449218751	-325.3392028808594	35.14584732055665	-564.7786865234376	-344.7037963867188	984.7741699218752	-938.9647216796877	nan	nan	nan	nan	nan	nan	nan	nan	nan	
168	0.835	-35.32526779174805	1599.641235351563	-878.4318847656252	-170.3612518310547	1607.865356445313	-919.3360595703127	-232.5542755126954	1598.687133789063	-787.399841308594	-294.6596984863282	1496.224609375	-844.044372558594	-453.0854492187501	1210.018310546875	-853.7813720703127	-212.4333496093751	1378.523803710938	-829.672546386719	-221.5944519042969	1442.102172851563	-1006.9609375	-333.5984497070313	1366.122680664063	-1164.3447265625	-338.8830566406251	1316.725830078125	-1163.134765625	-376.2252807617188	1332.2421875	-1208.613891601563	-423.9302978515626	1303.927612304688	-1249.950317382813	-484.4221191406251	1324.636962890625	-1206.611694335938	-483.8917236328126	1080.412231445313	-1066.129760742188	-451.657928466797	1041.736083984375	-1121.320190429688	-431.8383178710939	1065.8115234375	-1022.808532714844	-256.5724792480469	1434.934814453125	-661.3142700195314	-412.7928161621095	1402.884521484375	-529.7416992187501	-413.9163513183595	1353.92578125	-516.6536254882814	-462.1256103515626	1376.503662109375	-487.2478027343751	-505.8274230957032	1329.4453125	-450.9578247070314	-564.4490966796876	1338.319580078125	-514.1923828125001	-469.5161743164064	1109.922119140625	-635.0377807617189	-474.4539184570314	1069.381469726563	-572.3463134765626	-414.217010498047	1069.366088867188	-663.0214233398439	-365.9365844726563	989.282165527344	-722.3312988281251	-519.9564819335939	1077.778564453125	-847.0303955078127	-532.4980468750001	1049.190063476563	-873.907409667969	-541.2285766601564	1052.869873046875	-818.7276611328127	-416.8606262207032	754.4392089843751	-1050.004150390625	-356.3982849121094	699.3346557617189	-1072.071899414063	-312.6568908691407	717.7727050781251	-1070.610473632813	-357.5087280273438	640.1486206054689	-1067.002807617188	-298.8069458007813	525.6237182617189	-1085.117065429688	-295.1929931640626	483.0342102050782	-964.4822387695315	-292.9884643554688	300.1873779296876	-1086.345092773438	-372.2278442382813	282.4449157714844	-1123.030883789063	-332.1137084960938	264.8347778320313	-1115.744384765625	-335.8924255371094	181.8326721191407	-1095.697143554688	-416.870574951172	104.3756256103516	-1118.847900390625	-374.8244018554688	105.9290313720703	-1037.831298828125	-471.5669250488282	43.94470214843751	-1073.40576171875	-248.2047882080079	58.02888870239259	-1087.927124023438	-258.8452148437501	58.47099685668947	-1133.728393554688	-311.7554626464844	33.50658416748048	-1174.91552734375	-401.0246887207032	759.3165893554689	-617.4581298828126	-353.2693176269532	712.9332275390626	-606.3333129882814	-321.0840454101563	721.7404174804689	-609.9412841796876	-361.7675170898438	629.1661376953126	-616.2177734375001	-325.0304870605469	507.4231567382814	-607.6776733398439	-303.6351623535157	492.4061584472657	-735.5104980468751	-306.7537841796876	315.8397521972657	-618.9414672851564	-398.904266357422	259.9622802734376	-605.3327026367189	-355.6648864746094	244.9949340820313	-609.8898315429689	-346.5906982421876	195.0825347900391	-639.1248779296876	-426.9223937988282	99.30547332763675	-623.2344970703126	-392.5506286621095	106.015380859375	-707.2655639648439	-481.1885681152345	47.20066452026368	-687.9805297851564	-261.2366943359376	56.24473571777345	-645.9187011718751	-273.4442443847657	59.95960617065431	-607.1038208007814	-325.3777465820313	35.20559692382813	-564.8229980468751	-345.8477783203126	982.9879150390627	-939.2876586914065	nan	nan	nan	nan	nan	nan	nan	nan	nan	
169	0.84	-34.95683288574219	1598.489013671875	-878.447448730469	-169.1438751220703	1605.149047851563	-919.483093261719	-231.6006317138672	1595.871704101563	-787.719909667969	-293.4823608398438	1493.722900390625	-844.510925292969	-453.1763916015626	1208.68798828125	-853.9688110351565	-211.2965850830079	1375.5576171875	-830.0227050781252	-220.2149810791016	1439.267944335938	-1007.092224121094	-331.7870483398438	1363.359130859375	-1164.87939453125	-337.1854858398438	1314.059326171875	-1163.681762695313	-374.6958923339844	1329.387084960938	-1209.213012695313	-422.2137145996095	1301.161254882813	-1250.457275390625	-482.7766418457032	1322.437133789063	-1207.342163085938	-484.3512573242189	1078.370727539063	-1066.48291015625	-452.285614013672	1039.599609375	-1121.310791015625	-432.570526123047	1064.046875	-1022.906188964844	-255.7779388427735	1432.284423828125	-661.6182861328126	-411.8519897460939	1401.439697265625	-529.9352416992189	-413.4088745117189	1352.50244140625	-516.8366088867189	-461.2602539062501	1374.825561523438	-487.5673828125001	-505.420135498047	1328.498291015625	-451.2281494140626	-564.1062622070314	1337.283325195313	-514.2831420898439	-470.8847961425782	1108.395751953125	-635.4960327148439	-475.5568847656251	1067.892456054688	-572.7623291015626	-415.1449279785157	1068.167602539063	-663.2943115234376	-366.6681213378907	987.851745605469	-723.0127563476564	-520.6358642578126	1077.016235351563	-847.4111328125002	-533.7993774414064	1048.510009765625	-874.3135375976565	-542.0235595703126	1051.631958007813	-819.0411376953127	-417.3740844726564	752.9761352539064	-1050.51708984375	-356.6394653320313	698.4561767578126	-1072.80517578125	-313.1552124023438	717.2953491210939	-1071.695678710938	-357.0799255371094	638.9129028320314	-1067.751708984375	-297.7185974121094	525.2266845703126	-1086.0244140625	-293.7208251953126	483.4225158691407	-965.0285644531252	-291.9383544921876	299.7580566406251	-1087.345336914063	-371.8827209472657	282.2612915039063	-1123.338989257813	-331.4367675781251	264.6034545898438	-1116.260986328125	-335.7446594238282	181.7025451660157	-1096.156494140625	-417.808074951172	104.6712799072266	-1119.22705078125	-374.8215332031251	106.328369140625	-1037.991943359375	-471.568572998047	43.88949584960938	-1073.419799804688	-248.3415679931641	58.02005767822267	-1088.050170898438	-258.8378295898438	58.42612838745119	-1133.892211914063	-311.7520751953126	33.41443634033204	-1174.929443359375	-401.1785583496095	758.2642211914064	-617.3385009765626	-352.6659851074219	711.9869995117189	-606.5838012695314	-320.7660522460938	721.2326660156251	-609.4743041992189	-360.6946105957032	628.5571289062501	-615.4456787109376	-323.2226562500001	506.695037841797	-607.2741699218751	-303.3406982421876	492.0239562988282	-734.6156616210939	-305.7874755859376	315.4433288574219	-618.8518676757814	-398.638397216797	259.9127807617188	-605.1156005859376	-355.2597961425782	244.5791778564454	-609.7374877929689	-346.2618408203126	194.6808624267579	-638.9619140625001	-426.8891601562501	99.29167938232425	-623.2408447265626	-392.3734741210939	106.0494613647461	-707.3604125976564	-481.2208557128907	47.16212844848634	-688.0031127929689	-261.2929687500001	56.29296112060548	-645.9638061523439	-274.1849060058594	59.7442092895508	-607.6552734375001	-325.3219299316407	35.29656219482423	-564.8202514648439	-347.0954284667969	980.960388183594	-939.3950195312502	nan	nan	nan	nan	nan	nan	nan	nan	nan	
170	0.845	-33.05761337280274	1596.053100585938	-878.454772949219	-168.1833190917969	1602.55615234375	-919.577087402344	-231.1223602294922	1592.884887695313	-787.985046386719	-292.1933288574219	1491.315307617188	-845.0679321289065	-453.0868530273439	1206.92333984375	-854.3044433593752	-210.5091094970704	1373.272583007813	-830.3010864257815	-218.8047027587891	1436.279541015625	-1007.503662109375	-330.2152404785157	1360.5126953125	-1165.46044921875	-336.6557006835938	1311.423461914063	-1163.566162109375	-372.9620056152344	1326.59521484375	-1209.818481445313	-420.767547607422	1298.541381835938	-1250.97509765625	-481.2547607421876	1320.315551757813	-1208.156005859375	-484.8186645507814	1076.439331054688	-1066.848754882813	-452.7461547851564	1037.367553710938	-1121.305908203125	-433.1465454101564	1062.188842773438	-1023.1533203125	-254.8982238769532	1429.679321289063	-661.8500366210939	-411.1919860839845	1399.283813476563	-530.1138916015626	-412.8872680664064	1350.439575195313	-517.1009521484376	-460.6115722656251	1373.407958984375	-487.637420654297	-504.8816833496095	1326.129028320313	-451.5905761718751	-563.5232543945314	1336.089477539063	-514.4990844726564	-471.5912475585939	1106.738159179688	-635.8224487304689	-476.6713867187501	1066.262573242188	-573.2686767578126	-415.7459716796876	1066.490478515625	-663.5797119140626	-368.1293334960938	985.9121704101565	-723.1364135742189	-521.5672607421876	1075.728637695313	-847.4321899414065	-534.4832153320314	1047.059204101563	-874.5653076171877	-542.8877563476564	1050.573486328125	-819.123718261719	-417.9369506835939	751.7094726562501	-1051.016235351563	-356.8259887695313	697.4212646484376	-1073.662353515625	-313.5499877929688	716.6351318359376	-1072.517456054688	-356.8175659179688	637.9263305664064	-1068.70166015625	-296.9064636230469	525.1464233398439	-1086.836303710938	-292.4823913574219	483.040008544922	-965.9729614257815	-291.4083251953126	299.4869384765626	-1088.0556640625	-371.3397521972657	281.9849853515626	-1123.824462890625	-331.0326538085938	264.7578735351563	-1116.78759765625	-335.3717346191407	181.5543060302735	-1096.437744140625	-417.2182617187501	104.6165771484375	-1119.029663085938	-374.7008972167969	106.1405868530274	-1038.164428710938	-471.5923767089845	43.82516860961915	-1073.423217773438	-248.3122100830079	58.03584671020509	-1088.1328125	-258.8394775390626	58.42120361328126	-1134.01220703125	-311.7216186523438	33.40033721923829	-1175.007690429688	-401.0008544921876	757.0651855468751	-617.2096557617189	-353.0186157226563	710.8397216796876	-606.5772094726564	-320.2845458984376	720.4622802734376	-609.4688110351564	-359.5994873046876	627.9325561523439	-615.1013183593751	-321.9995727539063	506.3567810058595	-606.7788085937501	-301.4577331542969	491.5596923828126	-734.3608398437501	-305.0820007324219	314.5363464355469	-618.5531005859376	-397.8785705566407	259.7301635742188	-605.1169433593751	-354.7389526367188	244.4598083496094	-609.6112670898439	-346.0292968750001	194.4566345214844	-638.9563598632814	-426.9466247558595	99.15911865234378	-623.3284301757814	-392.3113098144532	106.0546264648438	-707.3956909179689	-481.3164672851564	47.13248443603516	-688.0592041015626	-261.3078918457032	56.40855026245119	-646.0750122070314	-274.2396240234376	59.65405273437501	-607.6509399414064	-325.3005065917969	35.34127807617188	-564.8118896484376	-348.2395629882813	978.9069824218752	-939.5923461914065	nan	nan	nan	nan	nan	nan	nan	nan	nan	
